<svg width="24" height="24" viewBox="0 0 24 24" fill="none" xmlns="http://www.w3.org/2000/svg">
<path d="M12 0C5.373 0 0 5.373 0 12C0 18.627 5.373 24 12 24C18.627 24 24 18.627 24 12C24 5.373 18.627 0 12 0ZM12 22C6.486 22 2 17.514 2 12C2 6.486 6.486 2 12 2C17.514 2 22 6.486 22 12C22 17.514 17.514 22 12 22Z" fill="currentColor"/>
<path d="M15.502 12.96L13.111 15.351V6.691C13.111 6.139 12.663 5.691 12.111 5.691C11.559 5.691 11.111 6.139 11.111 6.691V15.353L8.72 12.962C8.329 12.571 7.697 12.571 7.306 12.962C6.915 13.353 6.915 13.985 7.306 14.376L11.403 18.473C11.598 18.668 11.854 18.766 12.11 18.766C12.366 18.766 12.622 18.668 12.817 18.473L16.916 14.374C17.307 13.983 17.307 13.351 16.916 12.96C16.525 12.569 15.893 12.57 15.502 12.96Z" fill="currentColor"/>
</svg>
